<svg xmlns="http://www.w3.org/2000/svg">
  <symbol id="hamb" viewBox="0 0 31 31">
    <circle cx="6.5" cy="6.5" r="6"/>
    <circle cx="6.5" cy="24.5" r="6"/>
    <circle cx="24.5" cy="6.5" r="6"/>
    <circle cx="24.5" cy="24.5" r="6"/>
  </symbol>
  <symbol id="arrow" viewBox="0 0 306 306">
    <g>
		  <polygon points="94.35,0 58.65,35.7 175.95,153 58.65,270.3 94.35,306 247.35,153"/>
	  </g>
  </symbol>
  <symbol id="pie-chart" viewBox="0 0 512 512">
    <g>
      <g>
        <path d="M80.944,2.582H14.846c-5.633,0-10.199,4.566-10.199,10.199c0,5.633,4.566,10.199,10.199,10.199h66.098
          c5.633,0,10.199-4.566,10.199-10.199C91.144,7.149,86.577,2.582,80.944,2.582z"/>
      </g>
    </g>
    <g>
      <g>
        <path d="M494.054,456.487h-64.971l-24.836-24.837c11.82-8.102,22.996-17.324,33.373-27.641
          c44.967-44.705,69.733-104.238,69.733-167.632c0-63.139-24.587-122.499-69.233-167.144C393.474,24.587,334.113,0,270.975,0
          C211.004,0,154.452,22.197,110.67,62.68L88.156,40.167c-1.912-1.912-4.507-2.987-7.212-2.987H14.846
          c-5.633,0-10.199,4.566-10.199,10.199s4.566,10.199,10.199,10.199H76.72l19.564,19.564
          c-39.856,43.631-61.686,99.753-61.686,159.235c0,62.906,24.437,122.111,68.81,166.711
          c44.697,44.924,104.206,69.667,167.567,69.667c41.089,0,80.599-10.433,115.495-30.034l31.177,31.177
          c1.912,1.912,4.507,2.987,7.212,2.987h69.195c5.633,0,10.199-4.566,10.199-10.199
          C504.253,461.053,499.687,456.487,494.054,456.487z M430.306,382.187l-134.811-135.61h191.224
          C484.38,297.279,464.622,344.773,430.306,382.187z M281.174,20.636c111,5.182,200.359,94.543,205.541,205.542H281.174V20.636z
          M54.997,236.377c-0.001-55.621,21.141-106.394,55.801-144.72l20.254,20.254c1.992,1.992,4.602,2.987,7.212,2.987
          s5.221-0.995,7.212-2.987c3.983-3.983,3.983-10.441,0-14.425l-20.304-20.304c36.108-33.098,83.466-54.113,135.604-56.546v211.502
          L130.21,362.035l-19.368,19.269C74.755,341.515,54.997,290.441,54.997,236.377z M377.333,404.737
          c-3.983-3.983-10.441-3.983-14.425,0c-3.984,3.983-3.983,10.441,0,14.425l8.516,8.516c-30.616,16.125-64.886,24.678-100.45,24.678
          c-54.479,0-105.845-20.022-145.747-56.59l145.707-144.961l144.904,145.763c-8.296,7.519-17.089,14.317-26.291,20.385
          L377.333,404.737z"/>
      </g>
    </g>
    <g>
      <g>
        <path d="M494.054,491.602h-69.195c-5.633,0-10.199,4.566-10.199,10.199c0,5.633,4.566,10.199,10.199,10.199h69.195
          c5.633,0,10.199-4.566,10.199-10.199C504.253,496.168,499.687,491.602,494.054,491.602z"/>
      </g>
    </g>
    <g>
      <g>
        <path d="M423.825,192.097h-4.131c-5.633,0-10.199,4.566-10.199,10.199c0,5.633,4.566,10.199,10.199,10.199h4.131
          c5.633,0,10.199-4.566,10.199-10.199C434.025,196.663,429.458,192.097,423.825,192.097z"/>
      </g>
    </g>
    <g>
      <g>
        <path d="M383.548,192.097h-76.426c-5.633,0-10.199,4.566-10.199,10.199c0,5.633,4.566,10.199,10.199,10.199h76.426
          c5.633,0,10.199-4.566,10.199-10.199C393.747,196.663,389.181,192.097,383.548,192.097z"/>
      </g>
    </g>
  </symbol>
  <symbol id="web" viewBox="0 0 512.00003 512.00003">
   <path d="m42.667969 443.734375h136.53125v17.066406h-34.132813c-18.851562 0-34.132812 15.28125-34.132812 34.132813v8.53125c0 4.714844 3.820312 8.535156 8.53125 8.535156h273.070312c4.710938 0 8.53125-3.820312 8.53125-8.535156v-8.53125c0-18.851563-15.28125-34.132813-34.132812-34.132813h-34.132813v-17.066406h136.53125c23.554688-.027344 42.640625-19.117187 42.667969-42.667969v-358.398437c-.027344-23.554688-19.113281-42.6406252-42.667969-42.667969h-426.664062c-23.554688.0273438-42.6406252 19.113281-42.667969 42.667969v358.398437c.0273438 23.550782 19.113281 42.640625 42.667969 42.667969zm341.332031 51.199219h-256c0-9.425782 7.640625-17.066406 17.066406-17.066406h221.867188c9.425781 0 17.066406 7.640624 17.066406 17.066406zm-187.734375-34.132813v-17.066406h119.46875v17.066406zm273.066406-34.132812h-426.664062c-14.140625 0-25.601563-11.460938-25.601563-25.601563v-17.066406h477.867188v17.066406c0 14.140625-11.460938 25.601563-25.601563 25.601563zm-204.796875-307.203125h230.398438v247.46875h-230.398438zm230.398438-76.796875v59.730469h-230.398438v-85.332032h204.796875c14.140625 0 25.601563 11.460938 25.601563 25.601563zm-452.265625-25.601563h204.796875v349.867188h-230.398438v-324.265625c0-14.140625 11.460938-25.601563 25.601563-25.601563zm0 0"/><path d="m307.199219 85.332031c14.140625 0 25.601562-11.460937 25.601562-25.597656 0-14.140625-11.460937-25.601563-25.601562-25.601563-14.136719 0-25.597657 11.460938-25.597657 25.601563 0 14.136719 11.460938 25.597656 25.597657 25.597656zm0-34.132812c4.714843 0 8.535156 3.820312 8.535156 8.535156 0 4.710937-3.820313 8.53125-8.535156 8.53125-4.710938 0-8.53125-3.820313-8.53125-8.53125 0-4.714844 3.820312-8.535156 8.53125-8.535156zm0 0"/><path d="m366.933594 68.265625h93.867187c4.710938 0 8.53125-3.820313 8.53125-8.53125 0-4.714844-3.820312-8.535156-8.53125-8.535156h-93.867187c-4.714844 0-8.535156 3.820312-8.535156 8.535156 0 4.710937 3.820312 8.53125 8.535156 8.53125zm0 0"/><path d="m460.800781 136.535156h-162.132812c-9.425781 0-17.066407 7.640625-17.066407 17.066406v76.796876c.015626 6.675781 3.925782 12.726562 10 15.488281.195313.09375.367188.207031.570313.28125 2.058594.855469 4.265625 1.296875 6.496094 1.296875h162.132812c2.292969.003906 4.5625-.460938 6.671875-1.363282.195313-.078124.359375-.203124.546875-.300781 5.988281-2.792969 9.824219-8.792969 9.847657-15.402343v-76.796876c0-9.425781-7.640626-17.066406-17.066407-17.066406zm-43.402343 93.863282-15.972657-15.972657 12.441407-11.605469 29.550781 27.578126zm-34.601563-10.46875s0 .09375.078125.136718c.074219.042969.125.066406.179688.121094l10.238281 10.238281h-78.25l39.089843-39.152343zm78.003906-66.328126v69.679688l-41.113281-38.398438c-3.28125-3.066406-8.378906-3.066406-11.65625 0l-18.6875 17.441407-29.175781-29.183594c-1.601563-1.601563-3.773438-2.503906-6.039063-2.503906s-4.4375.902343-6.039062 2.503906l-49.421875 49.503906v-69.042969zm0 0"/><path d="m349.867188 298.667969h-25.601563c-4.710937 0-8.53125 3.820312-8.53125 8.53125 0 4.714843 3.820313 8.535156 8.53125 8.535156h25.601563c4.710937 0 8.53125-3.820313 8.53125-8.535156 0-4.710938-3.820313-8.53125-8.53125-8.53125zm0 0"/><path d="m294.828125 300.117188c-.4375-.335938-.929687-.597657-1.453125-.769532-.511719-.257812-1.0625-.429687-1.628906-.511718-1.0625-.253907-2.171875-.253907-3.234375 0-.566407.082031-1.113281.253906-1.621094.511718-.546875.191406-1.066406.449219-1.542969.769532l-1.273437 1.023437c-1.5625 1.632813-2.445313 3.800781-2.472657 6.058594-.03125 1.121093.203126 2.230469.679688 3.242187.433594 1.035156 1.039062 1.988282 1.792969 2.816406l1.273437 1.023438c.476563.324219.996094.582031 1.542969.769531.507813.257813 1.054687.433594 1.621094.511719.535156.097656 1.078125.15625 1.621093.171875.542969-.015625 1.082032-.074219 1.613282-.171875.566406-.078125 1.117187-.253906 1.628906-.511719.523438-.171875 1.015625-.429687 1.453125-.769531.503906-.339844.9375-.679688 1.363281-1.023438.753906-.828124 1.359375-1.78125 1.792969-2.816406.4375-1.023437.667969-2.125.683594-3.242187-.035157-2.257813-.917969-4.421875-2.476563-6.058594-.425781-.339844-.859375-.683594-1.363281-1.023437zm0 0"/><path d="m349.867188 264.535156h-25.601563c-4.710937 0-8.53125 3.820313-8.53125 8.53125 0 4.714844 3.820313 8.535156 8.53125 8.535156h25.601563c4.710937 0 8.53125-3.820312 8.53125-8.535156 0-4.710937-3.820313-8.53125-8.53125-8.53125zm0 0"/><path d="m294.828125 266.007812c-.4375-.335937-.929687-.601562-1.453125-.773437-.507812-.261719-1.0625-.433594-1.628906-.503906-1.0625-.265625-2.171875-.265625-3.234375 0-.566407.070312-1.113281.242187-1.621094.503906-.546875.191406-1.066406.449219-1.542969.773437l-1.273437 1.027344c-1.554688 1.625-2.441407 3.78125-2.472657 6.03125-.03125 1.121094.203126 2.230469.679688 3.242188.433594 1.035156 1.039062 1.988281 1.792969 2.816406l1.273437 1.015625c.476563.324219.996094.585937 1.542969.777344.511719.25 1.058594.421875 1.621094.511719.535156.09375 1.078125.152343 1.621093.171874.542969-.019531 1.082032-.078124 1.613282-.171874.566406-.089844 1.117187-.261719 1.628906-.511719.523438-.175781 1.015625-.4375 1.453125-.777344.503906-.332031.9375-.675781 1.363281-1.015625.753906-.828125 1.359375-1.78125 1.792969-2.816406.4375-1.023438.667969-2.125.683594-3.242188-.03125-2.257812-.917969-4.421875-2.476563-6.058594-.425781-.316406-.859375-.65625-1.363281-1zm0 0"/><path d="m349.867188 332.800781h-25.601563c-4.710937 0-8.53125 3.820313-8.53125 8.53125 0 4.714844 3.820313 8.535157 8.53125 8.535157h25.601563c4.710937 0 8.53125-3.820313 8.53125-8.535157 0-4.710937-3.820313-8.53125-8.53125-8.53125zm0 0"/><path d="m294.828125 334.277344c-.4375-.339844-.929687-.601563-1.453125-.777344-.507812-.261719-1.0625-.429688-1.628906-.503906-1.0625-.265625-2.171875-.265625-3.234375 0-.566407.074218-1.113281.242187-1.621094.503906-.546875.191406-1.066406.453125-1.542969.777344l-1.273437 1.023437c-1.554688 1.625-2.441407 3.78125-2.472657 6.03125-.03125 1.121094.203126 2.230469.679688 3.242188.433594 1.035156 1.039062 1.988281 1.792969 2.816406l1.273437 1.015625c.476563.324219.996094.585938 1.542969.777344.511719.253906 1.058594.425781 1.621094.511718.535156.097657 1.078125.152344 1.621093.171876.542969-.019532 1.082032-.074219 1.613282-.171876.566406-.085937 1.117187-.257812 1.628906-.511718.523438-.175782 1.015625-.4375 1.453125-.777344.503906-.332031.9375-.671875 1.363281-1.015625.753906-.828125 1.359375-1.78125 1.792969-2.816406.4375-1.023438.667969-2.125.683594-3.242188-.03125-2.257812-.917969-4.421875-2.476563-6.058593-.425781-.316407-.859375-.65625-1.363281-.996094zm0 0"/><path d="m460.800781 264.535156h-68.265625c-9.425781 0-17.070312 7.640625-17.070312 17.066406v51.199219c0 9.425781 7.644531 17.066407 17.070312 17.066407h68.265625c9.425781 0 17.066407-7.640626 17.066407-17.066407v-51.199219c0-9.425781-7.640626-17.066406-17.066407-17.066406zm-68.265625 68.265625v-51.199219h68.265625v51.199219zm0 0"/><path d="m42.667969 59.734375h51.199219c4.710937 0 8.53125-3.820313 8.53125-8.535156 0-4.710938-3.820313-8.53125-8.53125-8.53125h-51.199219c-4.714844 0-8.535157 3.820312-8.535157 8.53125 0 4.714843 3.820313 8.535156 8.535157 8.535156zm0 0"/><path d="m128 59.734375h17.066406c4.714844 0 8.535156-3.820313 8.535156-8.535156 0-4.710938-3.820312-8.53125-8.535156-8.53125h-17.066406c-4.710938 0-8.535156 3.820312-8.535156 8.53125 0 4.714843 3.824218 8.535156 8.535156 8.535156zm0 0"/><path d="m85.332031 85.332031c0 4.714844 3.820313 8.535157 8.535157 8.535157h93.867187c4.710937 0 8.53125-3.820313 8.53125-8.535157 0-4.710937-3.820313-8.53125-8.53125-8.53125h-93.867187c-4.714844 0-8.535157 3.820313-8.535157 8.53125zm0 0"/><path d="m42.667969 93.867188h17.066406c4.710937 0 8.53125-3.820313 8.53125-8.535157 0-4.710937-3.820313-8.53125-8.53125-8.53125h-17.066406c-4.714844 0-8.535157 3.820313-8.535157 8.53125 0 4.714844 3.820313 8.535157 8.535157 8.535157zm0 0"/><path d="m85.332031 170.667969c0 4.710937 3.820313 8.53125 8.535157 8.53125h93.867187c4.710937 0 8.53125-3.820313 8.53125-8.53125 0-4.714844-3.820313-8.535157-8.53125-8.535157h-93.867187c-4.714844 0-8.535157 3.820313-8.535157 8.535157zm0 0"/><path d="m42.667969 179.199219h17.066406c4.710937 0 8.53125-3.820313 8.53125-8.53125 0-4.714844-3.820313-8.535157-8.53125-8.535157h-17.066406c-4.714844 0-8.535157 3.820313-8.535157 8.535157 0 4.710937 3.820313 8.53125 8.535157 8.53125zm0 0"/><path d="m76.800781 213.332031h93.867188c4.710937 0 8.53125-3.820312 8.53125-8.53125 0-4.714843-3.820313-8.535156-8.53125-8.535156h-93.867188c-4.714843 0-8.535156 3.820313-8.535156 8.535156 0 4.710938 3.820313 8.53125 8.535156 8.53125zm0 0"/><path d="m221.867188 196.265625h-17.066407c-4.714843 0-8.535156 3.820313-8.535156 8.535156 0 4.710938 3.820313 8.53125 8.535156 8.53125h17.066407c4.710937 0 8.53125-3.820312 8.53125-8.53125 0-4.714843-3.820313-8.535156-8.53125-8.535156zm0 0"/><path d="m119.464844 119.464844c0 4.714844 3.824218 8.535156 8.535156 8.535156h93.867188c4.710937 0 8.53125-3.820312 8.53125-8.535156 0-4.710938-3.820313-8.53125-8.53125-8.53125h-93.867188c-4.710938 0-8.535156 3.820312-8.535156 8.53125zm0 0"/><path d="m93.867188 110.933594h-17.066407c-4.714843 0-8.535156 3.820312-8.535156 8.53125 0 4.714844 3.820313 8.535156 8.535156 8.535156h17.066407c4.710937 0 8.53125-3.820312 8.53125-8.535156 0-4.710938-3.820313-8.53125-8.53125-8.53125zm0 0"/><path d="m42.667969 264.535156h51.199219c4.710937 0 8.53125-3.824218 8.53125-8.535156s-3.820313-8.535156-8.53125-8.535156h-51.199219c-4.714844 0-8.535157 3.824218-8.535157 8.535156s3.820313 8.535156 8.535157 8.535156zm0 0"/><path d="m128 264.535156h17.066406c4.714844 0 8.535156-3.824218 8.535156-8.535156s-3.820312-8.535156-8.535156-8.535156h-17.066406c-4.710938 0-8.535156 3.824218-8.535156 8.535156s3.824218 8.535156 8.535156 8.535156zm0 0"/><path d="m85.332031 290.132812c0 4.714844 3.820313 8.535157 8.535157 8.535157h93.867187c4.710937 0 8.53125-3.820313 8.53125-8.535157 0-4.710937-3.820313-8.53125-8.53125-8.53125h-93.867187c-4.714844 0-8.535157 3.820313-8.535157 8.53125zm0 0"/><path d="m42.667969 298.667969h17.066406c4.710937 0 8.53125-3.820313 8.53125-8.535157 0-4.710937-3.820313-8.53125-8.53125-8.53125h-17.066406c-4.714844 0-8.535157 3.820313-8.535157 8.53125 0 4.714844 3.820313 8.535157 8.535157 8.535157zm0 0"/><path d="m221.867188 315.734375h-93.867188c-4.710938 0-8.535156 3.820313-8.535156 8.53125 0 4.714844 3.824218 8.535156 8.535156 8.535156h93.867188c4.710937 0 8.53125-3.820312 8.53125-8.535156 0-4.710937-3.820313-8.53125-8.53125-8.53125zm0 0"/><path d="m93.867188 315.734375h-17.066407c-4.714843 0-8.535156 3.820313-8.535156 8.53125 0 4.714844 3.820313 8.535156 8.535156 8.535156h17.066407c4.710937 0 8.53125-3.820312 8.53125-8.535156 0-4.710937-3.820313-8.53125-8.53125-8.53125zm0 0"/>
  </symbol>
  <symbol id="color" viewBox="0 0 74 74">
    <path d="m52.631 12.6a1 1 0 0 1 -.8-.4 17.825 17.825 0 0 0 -1.914-2.16 1 1 0 0 1 1.383-1.44 20.1 20.1 0 0 1 2.129 2.4 1 1 0 0 1 -.8 1.6z"/><path d="m37 43.95a19.792 19.792 0 0 1 -3.634-.327 20.566 20.566 0 0 1 .01-40.488 1 1 0 0 1 .348 1.97 18.569 18.569 0 1 0 21.846 18.275 18.057 18.057 0 0 0 -.5-4.264 1 1 0 1 1 1.944-.472 20.081 20.081 0 0 1 .558 4.736 20.561 20.561 0 0 1 -16.948 20.245 19.779 19.779 0 0 1 -3.624.325z"/><path d="m44.79 6.42a1.046 1.046 0 0 1 -.409-.083 17.94 17.94 0 0 0 -2.7-.928 1 1 0 1 1 .494-1.938 19.869 19.869 0 0 1 2.973 1.019 1 1 0 0 1 -.358 1.93z"/><path d="m51.427 71.193a20.573 20.573 0 1 1 20.573-20.573 20.6 20.6 0 0 1 -20.573 20.573zm0-39.146a18.573 18.573 0 1 0 18.573 18.573 18.594 18.594 0 0 0 -18.573-18.573z"/><path d="m22.573 71.193a20.573 20.573 0 1 1 20.573-20.573 20.6 20.6 0 0 1 -20.573 20.573zm0-39.146a18.573 18.573 0 1 0 18.573 18.573 18.594 18.594 0 0 0 -18.573-18.573z"/>
  </symbol>
  <symbol id="behance" viewBox="0 0 95.802 95.802">
    <g>
      <path d="M38.664,44.689c0,0,9.065-0.673,9.065-11.306c0-10.632-7.417-15.819-16.813-15.819H13.622h-0.508H0v59.414h13.114h0.508
        h17.294c0,0,18.873,0.597,18.873-17.536C49.79,59.442,50.613,44.689,38.664,44.689z M13.622,28.125h15.069h2.226
        c0,0,4.203,0,4.203,6.181c0,6.181-2.473,7.077-5.275,7.077H13.622V28.125z M30.119,66.42H13.622V50.541h17.294
        c0,0,6.264-0.08,6.264,8.16C37.18,65.572,32.599,66.351,30.119,66.42z"/>
      <rect x="62.18" y="21.064" width="24.514" height="7.317"/>
      <path d="M74.961,32.682c-22.848,0-22.828,22.826-22.828,22.826s-1.566,22.713,22.829,22.713c0,0,20.331,1.162,20.331-15.801
        H84.837c0,0,0.349,6.391-9.526,6.391c0,0-10.455,0.699-10.455-10.34h30.785C95.641,58.471,99.009,32.682,74.961,32.682z
        M84.255,50.541H64.738c0,0,1.277-9.158,10.455-9.158C84.372,41.382,84.255,50.541,84.255,50.541z"/>
	  </g>
  </symbol>
  <symbol id="insta" viewBox="0 0 511 511.9">
    <path d="m510.949219 150.5c-1.199219-27.199219-5.597657-45.898438-11.898438-62.101562-6.5-17.199219-16.5-32.597657-29.601562-45.398438-12.800781-13-28.300781-23.101562-45.300781-29.5-16.296876-6.300781-34.898438-10.699219-62.097657-11.898438-27.402343-1.300781-36.101562-1.601562-105.601562-1.601562s-78.199219.300781-105.5 1.5c-27.199219 1.199219-45.898438 5.601562-62.097657 11.898438-17.203124 6.5-32.601562 16.5-45.402343 29.601562-13 12.800781-23.097657 28.300781-29.5 45.300781-6.300781 16.300781-10.699219 34.898438-11.898438 62.097657-1.300781 27.402343-1.601562 36.101562-1.601562 105.601562s.300781 78.199219 1.5 105.5c1.199219 27.199219 5.601562 45.898438 11.902343 62.101562 6.5 17.199219 16.597657 32.597657 29.597657 45.398438 12.800781 13 28.300781 23.101562 45.300781 29.5 16.300781 6.300781 34.898438 10.699219 62.101562 11.898438 27.296876 1.203124 36 1.5 105.5 1.5s78.199219-.296876 105.5-1.5c27.199219-1.199219 45.898438-5.597657 62.097657-11.898438 34.402343-13.300781 61.601562-40.5 74.902343-74.898438 6.296876-16.300781 10.699219-34.902343 11.898438-62.101562 1.199219-27.300781 1.5-36 1.5-105.5s-.101562-78.199219-1.300781-105.5zm-46.097657 209c-1.101562 25-5.300781 38.5-8.800781 47.5-8.601562 22.300781-26.300781 40-48.601562 48.601562-9 3.5-22.597657 7.699219-47.5 8.796876-27 1.203124-35.097657 1.5-103.398438 1.5s-76.5-.296876-103.402343-1.5c-25-1.097657-38.5-5.296876-47.5-8.796876-11.097657-4.101562-21.199219-10.601562-29.398438-19.101562-8.5-8.300781-15-18.300781-19.101562-29.398438-3.5-9-7.699219-22.601562-8.796876-47.5-1.203124-27-1.5-35.101562-1.5-103.402343s.296876-76.5 1.5-103.398438c1.097657-25 5.296876-38.5 8.796876-47.5 4.101562-11.101562 10.601562-21.199219 19.203124-29.402343 8.296876-8.5 18.296876-15 29.398438-19.097657 9-3.5 22.601562-7.699219 47.5-8.800781 27-1.199219 35.101562-1.5 103.398438-1.5 68.402343 0 76.5.300781 103.402343 1.5 25 1.101562 38.5 5.300781 47.5 8.800781 11.097657 4.097657 21.199219 10.597657 29.398438 19.097657 8.5 8.300781 15 18.300781 19.101562 29.402343 3.5 9 7.699219 22.597657 8.800781 47.5 1.199219 27 1.5 35.097657 1.5 103.398438s-.300781 76.300781-1.5 103.300781zm0 0"/><path d="m256.449219 124.5c-72.597657 0-131.5 58.898438-131.5 131.5s58.902343 131.5 131.5 131.5c72.601562 0 131.5-58.898438 131.5-131.5s-58.898438-131.5-131.5-131.5zm0 216.800781c-47.097657 0-85.300781-38.199219-85.300781-85.300781s38.203124-85.300781 85.300781-85.300781c47.101562 0 85.300781 38.199219 85.300781 85.300781s-38.199219 85.300781-85.300781 85.300781zm0 0"/><path d="m423.851562 119.300781c0 16.953125-13.746093 30.699219-30.703124 30.699219-16.953126 0-30.699219-13.746094-30.699219-30.699219 0-16.957031 13.746093-30.699219 30.699219-30.699219 16.957031 0 30.703124 13.742188 30.703124 30.699219zm0 0"/>
  </symbol>
  <symbol id="dribble" viewBox="0 0 438.533 438.533">
      <path d="M409.133,109.203c-19.608-33.592-46.205-60.189-79.798-79.796C295.736,9.801,259.058,0,219.273,0
      c-39.781,0-76.47,9.801-110.063,29.407c-33.595,19.604-60.192,46.201-79.8,79.796C9.801,142.8,0,179.489,0,219.267
      c0,39.78,9.804,76.463,29.407,110.062c19.607,33.592,46.204,60.189,79.799,79.798c33.597,19.605,70.283,29.407,110.063,29.407
      s76.47-9.802,110.065-29.407c33.593-19.602,60.189-46.206,79.795-79.798c19.603-33.596,29.403-70.284,29.403-110.062
      C438.533,179.485,428.732,142.795,409.133,109.203z M219.27,31.977c47.201,0,88.41,15.607,123.621,46.82l-3.569,4.993
      c-1.427,2.002-4.996,5.852-10.704,11.565c-5.709,5.708-11.943,11.136-18.699,16.274c-6.762,5.14-15.94,10.992-27.555,17.559
      c-11.611,6.567-23.982,12.328-37.117,17.276c-21.887-40.355-45.296-76.709-70.231-109.064
      C190.055,33.784,204.805,31.977,219.27,31.977z M72.524,103.06c18.271-23.026,40.537-40.73,66.806-53.1
      c23.601,31.405,46.82,67.381,69.662,107.921c-57.862,15.227-115.532,22.841-173.014,22.838
      C42.072,151.98,54.253,126.091,72.524,103.06z M44.54,286.794c-8.376-21.412-12.563-43.923-12.563-67.527
      c0-2.666,0.098-4.665,0.286-5.996c68.905,0,132.955-8.848,192.149-26.553c6.092,11.8,11.136,22.364,15.133,31.693
      c-0.771,0.38-1.999,0.806-3.713,1.283c-1.719,0.476-2.953,0.806-3.721,0.999l-10.561,3.711
      c-7.236,2.666-16.708,7.235-28.409,13.703c-11.704,6.478-24.123,14.182-37.257,23.13c-13.134,8.949-26.696,20.797-40.684,35.553
      c-13.99,14.75-25.743,30.591-35.26,47.53C64.713,327.381,52.914,308.2,44.54,286.794z M219.27,406.56
      c-44.54,0-84.32-14.277-119.343-42.825l4.283,3.142c6.661-14.66,16.462-28.746,29.408-42.257
      c12.944-13.511,25.41-24.413,37.401-32.695c11.991-8.274,25.028-16.077,39.115-23.414c14.084-7.323,23.691-11.991,28.835-13.983
      c5.14-1.998,9.233-3.572,12.278-4.716l0.568-0.287h0.575c18.647,48.916,31.977,96.313,39.968,142.184
      C268.756,401.611,244.397,406.557,219.27,406.56z M376.876,320.479c-14.086,21.796-31.696,39.834-52.817,54.104
      c-7.81-43.776-19.985-88.415-36.549-133.902c37.877-5.907,76.8-3.142,116.771,8.274
      C400.092,274.841,390.955,298.687,376.876,320.479z M403.706,216.698c-1.903-0.378-4.285-0.81-7.139-1.283
      c-2.854-0.473-6.331-1.047-10.424-1.713c-4.087-0.666-8.662-1.283-13.702-1.855c-5.045-0.571-10.421-1.093-16.136-1.569
      c-5.708-0.478-11.8-0.855-18.268-1.143c-6.479-0.284-13.042-0.428-19.705-0.428c-6.656,0-13.657,0.193-20.981,0.571
      c-7.326,0.375-14.414,1.049-21.265,1.999c-0.575-0.953-1.287-2.524-2.143-4.714c-0.855-2.187-1.479-3.855-1.848-4.997
      c-3.621-7.994-7.81-17.036-12.573-27.121c13.134-5.333,25.652-11.469,37.555-18.418c11.892-6.949,21.402-13.131,28.544-18.555
      c7.139-5.43,13.895-11.188,20.27-17.277c6.379-6.09,10.513-10.323,12.423-12.703c1.906-2.384,3.713-4.714,5.424-6.995l0.287-0.288
      c27.788,33.88,41.974,72.897,42.538,117.059L403.706,216.698z"/>
  </symbol>
  <symbol id="fb" viewBox="0 0 512 512">
    <g>
      <path d="M452,0H60C26.916,0,0,26.916,0,60v392c0,33.084,26.916,60,60,60h392c33.084,0,60-26.916,60-60V60
        C512,26.916,485.084,0,452,0z M472,452c0,11.028-8.972,20-20,20H338V309h61.79L410,247h-72v-43c0-16.975,13.025-30,30-30h41v-62
        h-41c-50.923,0-91.978,41.25-91.978,92.174V247H216v62h60.022v163H60c-11.028,0-20-8.972-20-20V60c0-11.028,8.972-20,20-20h392
        c11.028,0,20,8.972,20,20V452z"/>
  	</g>
  </symbol>
  <symbol id="arrow-down" viewBox="0 0 8 15">
    <path d="M3.64645 14.3536C3.84171 14.5488 4.15829 14.5488 4.35355 14.3536L7.53553 11.1716C7.7308 10.9763 7.7308 10.6597 7.53553 10.4645C7.34027 10.2692 7.02369 10.2692 6.82843 10.4645L4 13.2929L1.17157 10.4645C0.976311 10.2692 0.659729 10.2692 0.464467 10.4645C0.269204 10.6597 0.269204 10.9763 0.464467 11.1716L3.64645 14.3536ZM3.5 2.18557e-08L3.5 14L4.5 14L4.5 -2.18557e-08L3.5 2.18557e-08Z"/>
  </symbol>
</svg>